<svg width="320" height="320" viewBox="0 0 320 320" xmlns="http://www.w3.org/2000/svg" shape-rendering="crispEdges"><rect width="100%" height="100%" fill="#e1d7d5" /><rect width="100" height="10" x="110" y="260" fill="#fe500c" /><rect width="100" height="10" x="110" y="270" fill="#fe500c" /><rect width="20" height="10" x="110" y="280" fill="#fe500c" /><rect width="70" height="10" x="140" y="280" fill="#fe500c" /><rect width="20" height="10" x="110" y="290" fill="#fe500c" /><rect width="70" height="10" x="140" y="290" fill="#fe500c" /><rect width="20" height="10" x="110" y="300" fill="#fe500c" /><rect width="70" height="10" x="140" y="300" fill="#fe500c" /><rect width="20" height="10" x="110" y="310" fill="#fe500c" /><rect width="70" height="10" x="140" y="310" fill="#fe500c" /><rect width="20" height="10" x="140" y="260" fill="#4bea69" /><rect width="20" height="10" x="180" y="260" fill="#4bea69" /><rect width="20" height="10" x="140" y="270" fill="#4bea69" /><rect width="20" height="10" x="180" y="270" fill="#4bea69" /><rect width="20" height="10" x="140" y="280" fill="#000000" /><rect width="20" height="10" x="180" y="280" fill="#000000" /><rect width="20" height="10" x="140" y="290" fill="#000000" /><rect width="20" height="10" x="180" y="290" fill="#000000" /><rect width="20" height="10" x="140" y="300" fill="#4bea69" /><rect width="20" height="10" x="180" y="300" fill="#4bea69" /><rect width="20" height="10" x="140" y="310" fill="#4bea69" /><rect width="20" height="10" x="180" y="310" fill="#4bea69" /><rect width="30" height="10" x="110" y="90" fill="#34ac80" /><rect width="30" height="10" x="190" y="90" fill="#4bea69" /><rect width="50" height="10" x="100" y="100" fill="#34ac80" /><rect width="50" height="10" x="180" y="100" fill="#4bea69" /><rect width="50" height="10" x="100" y="110" fill="#34ac80" /><rect width="50" height="10" x="180" y="110" fill="#4bea69" /><rect width="30" height="10" x="80" y="120" fill="#4bea69" /><rect width="50" height="10" x="110" y="120" fill="#34ac80" /><rect width="60" height="10" x="170" y="120" fill="#4bea69" /><rect width="20" height="10" x="230" y="120" fill="#34ac80" /><rect width="40" height="10" x="70" y="130" fill="#4bea69" /><rect width="60" height="10" x="110" y="130" fill="#34ac80" /><rect width="40" height="10" x="170" y="130" fill="#4bea69" /><rect width="50" height="10" x="210" y="130" fill="#34ac80" /><rect width="50" height="10" x="70" y="140" fill="#4bea69" /><rect width="50" height="10" x="120" y="140" fill="#34ac80" /><rect width="30" height="10" x="170" y="140" fill="#4bea69" /><rect width="60" height="10" x="200" y="140" fill="#34ac80" /><rect width="60" height="10" x="70" y="150" fill="#4bea69" /><rect width="10" height="10" x="130" y="150" fill="#068940" /><rect width="20" height="10" x="140" y="150" fill="#34ac80" /><rect width="30" height="10" x="160" y="150" fill="#4bea69" /><rect width="10" height="10" x="190" y="150" fill="#068940" /><rect width="60" height="10" x="200" y="150" fill="#34ac80" /><rect width="60" height="10" x="80" y="160" fill="#4bea69" /><rect width="10" height="10" x="140" y="160" fill="#068940" /><rect width="10" height="10" x="150" y="160" fill="#34ac80" /><rect width="20" height="10" x="160" y="160" fill="#4bea69" /><rect width="10" height="10" x="180" y="160" fill="#068940" /><rect width="60" height="10" x="190" y="160" fill="#34ac80" /><rect width="50" height="10" x="100" y="170" fill="#4bea69" /><rect width="10" height="10" x="150" y="170" fill="#068940" /><rect width="10" height="10" x="160" y="170" fill="#4bea69" /><rect width="10" height="10" x="170" y="170" fill="#068940" /><rect width="50" height="10" x="180" y="170" fill="#34ac80" /><rect width="20" height="10" x="110" y="180" fill="#34ac80" /><rect width="30" height="10" x="130" y="180" fill="#4bea69" /><rect width="10" height="10" x="160" y="180" fill="#068940" /><rect width="30" height="10" x="170" y="180" fill="#4bea69" /><rect width="20" height="10" x="200" y="180" fill="#34ac80" /><rect width="50" height="10" x="100" y="190" fill="#34ac80" /><rect width="10" height="10" x="150" y="190" fill="#068940" /><rect width="10" height="10" x="160" y="190" fill="#4bea69" /><rect width="10" height="10" x="170" y="190" fill="#068940" /><rect width="50" height="10" x="180" y="190" fill="#4bea69" /><rect width="60" height="10" x="80" y="200" fill="#34ac80" /><rect width="10" height="10" x="140" y="200" fill="#068940" /><rect width="20" height="10" x="150" y="200" fill="#4bea69" /><rect width="10" height="10" x="170" y="200" fill="#34ac80" /><rect width="10" height="10" x="180" y="200" fill="#068940" /><rect width="60" height="10" x="190" y="200" fill="#4bea69" /><rect width="60" height="10" x="70" y="210" fill="#34ac80" /><rect width="10" height="10" x="130" y="210" fill="#068940" /><rect width="30" height="10" x="140" y="210" fill="#4bea69" /><rect width="20" height="10" x="170" y="210" fill="#34ac80" /><rect width="10" height="10" x="190" y="210" fill="#068940" /><rect width="60" height="10" x="200" y="210" fill="#4bea69" /><rect width="60" height="10" x="70" y="220" fill="#34ac80" /><rect width="30" height="10" x="130" y="220" fill="#4bea69" /><rect width="50" height="10" x="160" y="220" fill="#34ac80" /><rect width="50" height="10" x="210" y="220" fill="#4bea69" /><rect width="50" height="10" x="70" y="230" fill="#34ac80" /><rect width="40" height="10" x="120" y="230" fill="#4bea69" /><rect width="10" height="10" x="160" y="230" fill="#34ac80" /><rect width="30" height="10" x="170" y="230" fill="#0b5027" /><rect width="20" height="10" x="200" y="230" fill="#34ac80" /><rect width="40" height="10" x="220" y="230" fill="#4bea69" /><rect width="20" height="10" x="270" y="230" fill="#068940" /><rect width="20" height="10" x="80" y="240" fill="#34ac80" /><rect width="60" height="10" x="100" y="240" fill="#4bea69" /><rect width="10" height="10" x="160" y="240" fill="#068940" /><rect width="50" height="10" x="170" y="240" fill="#34ac80" /><rect width="30" height="10" x="220" y="240" fill="#4bea69" /><rect width="40" height="10" x="250" y="240" fill="#068940" /><rect width="50" height="10" x="100" y="250" fill="#4bea69" /><rect width="30" height="10" x="150" y="250" fill="#068940" /><rect width="50" height="10" x="180" y="250" fill="#34ac80" /><rect width="50" height="10" x="230" y="250" fill="#068940" /><rect width="50" height="10" x="100" y="260" fill="#4bea69" /><rect width="30" height="10" x="110" y="270" fill="#4bea69" /><rect width="80" height="10" x="80" y="140" fill="#ff638d" /><rect width="80" height="10" x="170" y="140" fill="#cc0595" /><rect width="10" height="10" x="80" y="150" fill="#ff638d" /><rect width="20" height="10" x="90" y="150" fill="#ffffff" /><rect width="40" height="10" x="110" y="150" fill="#000000" /><rect width="10" height="10" x="150" y="150" fill="#ff638d" /><rect width="10" height="10" x="170" y="150" fill="#cc0595" /><rect width="20" height="10" x="180" y="150" fill="#ffffff" /><rect width="40" height="10" x="200" y="150" fill="#000000" /><rect width="10" height="10" x="240" y="150" fill="#cc0595" /><rect width="10" height="10" x="80" y="160" fill="#ff638d" /><rect width="20" height="10" x="90" y="160" fill="#ffffff" /><rect width="40" height="10" x="110" y="160" fill="#000000" /><rect width="10" height="10" x="150" y="160" fill="#ff638d" /><rect width="10" height="10" x="170" y="160" fill="#cc0595" /><rect width="20" height="10" x="180" y="160" fill="#ffffff" /><rect width="40" height="10" x="200" y="160" fill="#000000" /><rect width="10" height="10" x="240" y="160" fill="#cc0595" /><rect width="30" height="10" x="50" y="170" fill="#cc0595" /><rect width="10" height="10" x="80" y="170" fill="#ff638d" /><rect width="20" height="10" x="90" y="170" fill="#ffffff" /><rect width="40" height="10" x="110" y="170" fill="#000000" /><rect width="10" height="10" x="150" y="170" fill="#ff638d" /><rect width="20" height="10" x="160" y="170" fill="#cc0595" /><rect width="20" height="10" x="180" y="170" fill="#ffffff" /><rect width="40" height="10" x="200" y="170" fill="#000000" /><rect width="10" height="10" x="240" y="170" fill="#cc0595" /><rect width="10" height="10" x="50" y="180" fill="#cc0595" /><rect width="10" height="10" x="80" y="180" fill="#ff638d" /><rect width="20" height="10" x="90" y="180" fill="#ffffff" /><rect width="40" height="10" x="110" y="180" fill="#000000" /><rect width="10" height="10" x="150" y="180" fill="#ff638d" /><rect width="10" height="10" x="170" y="180" fill="#cc0595" /><rect width="20" height="10" x="180" y="180" fill="#ffffff" /><rect width="40" height="10" x="200" y="180" fill="#000000" /><rect width="10" height="10" x="240" y="180" fill="#cc0595" /><rect width="10" height="10" x="50" y="190" fill="#cc0595" /><rect width="10" height="10" x="80" y="190" fill="#ff638d" /><rect width="20" height="10" x="90" y="190" fill="#ffffff" /><rect width="40" height="10" x="110" y="190" fill="#000000" /><rect width="10" height="10" x="150" y="190" fill="#ff638d" /><rect width="10" height="10" x="170" y="190" fill="#cc0595" /><rect width="20" height="10" x="180" y="190" fill="#ffffff" /><rect width="40" height="10" x="200" y="190" fill="#000000" /><rect width="10" height="10" x="240" y="190" fill="#cc0595" /><rect width="10" height="10" x="80" y="200" fill="#ff638d" /><rect width="20" height="10" x="90" y="200" fill="#ffffff" /><rect width="40" height="10" x="110" y="200" fill="#000000" /><rect width="10" height="10" x="150" y="200" fill="#ff638d" /><rect width="10" height="10" x="170" y="200" fill="#cc0595" /><rect width="20" height="10" x="180" y="200" fill="#ffffff" /><rect width="40" height="10" x="200" y="200" fill="#000000" /><rect width="10" height="10" x="240" y="200" fill="#cc0595" /><rect width="80" height="10" x="80" y="210" fill="#ff638d" /><rect width="80" height="10" x="170" y="210" fill="#cc0595" /></svg>