<svg width="75" height="30" viewBox="0 0 75 30" fill="none" xmlns="http://www.w3.org/2000/svg">
<rect x="11.25" width="30" height="3.75" fill="#EC5B43"/>
<rect x="45" width="30" height="3.75" fill="#EC5B43"/>
<rect x="11.25" y="7.5" width="3.75" height="3.75" fill="#EC5B43"/>
<rect x="11.25" y="3.75" width="3.75" height="3.75" fill="#EC5B43"/>
<rect x="45" y="7.5" width="3.75" height="3.75" fill="#EC5B43"/>
<rect x="45" y="3.75" width="3.75" height="3.75" fill="#EC5B43"/>
<rect y="11.25" width="15" height="3.75" fill="#EC5B43"/>
<rect y="15" width="3.75" height="3.75" fill="#EC5B43"/>
<rect y="18.75" width="3.75" height="3.75" fill="#EC5B43"/>
<rect x="11.25" y="15" width="3.75" height="3.75" fill="#EC5B43"/>
<rect x="45" y="15" width="3.75" height="3.75" fill="#EC5B43"/>
<rect x="11.25" y="18.75" width="3.75" height="3.75" fill="#EC5B43"/>
<rect x="45" y="18.75" width="3.75" height="3.75" fill="#EC5B43"/>
<rect x="71.25" y="7.5" width="3.75" height="3.75" fill="#EC5B43"/>
<rect x="71.25" y="11.25" width="3.75" height="3.75" fill="#EC5B43"/>
<rect x="71.25" y="15" width="3.75" height="3.75" fill="#EC5B43"/>
<rect x="71.25" y="18.75" width="3.75" height="3.75" fill="#EC5B43"/>
<rect x="45" y="22.5" width="3.75" height="3.75" fill="#EC5B43"/>
<rect x="71.25" y="22.5" width="3.75" height="3.75" fill="#EC5B43"/>
<rect x="37.5" y="7.5" width="3.75" height="3.75" fill="#EC5B43"/>
<rect x="71.25" y="3.75" width="3.75" height="3.75" fill="#EC5B43"/>
<rect x="37.5" y="3.75" width="3.75" height="3.75" fill="#EC5B43"/>
<rect x="37.5" y="11.25" width="11.25" height="3.75" fill="#EC5B43"/>
<rect x="37.5" y="15" width="3.75" height="3.75" fill="#EC5B43"/>
<rect x="37.5" y="18.75" width="3.75" height="3.75" fill="#EC5B43"/>
<rect x="11.25" y="22.5" width="3.75" height="3.75" fill="#EC5B43"/>
<rect x="37.5" y="22.5" width="3.75" height="3.75" fill="#EC5B43"/>
<rect x="45" y="26.25" width="30" height="3.75" fill="#EC5B43"/>
<rect x="11.25" y="26.25" width="30" height="3.75" fill="#EC5B43"/>
<rect x="15" y="7.5" width="7.5" height="3.75" fill="white"/>
<rect x="22.5" y="7.5" width="15" height="3.75" fill="black"/>
<rect x="15" y="3.75" width="7.5" height="3.75" fill="white"/>
<rect x="22.5" y="3.75" width="15" height="3.75" fill="black"/>
<rect x="22.5" y="11.25" width="15" height="3.75" fill="black"/>
<rect x="48.75" y="7.5" width="7.5" height="3.75" fill="white"/>
<rect x="56.25" y="7.5" width="15" height="3.75" fill="black"/>
<rect x="48.75" y="3.75" width="7.5" height="3.75" fill="white"/>
<rect x="56.25" y="3.75" width="15" height="3.75" fill="black"/>
<rect x="15" y="11.25" width="7.5" height="3.75" fill="white"/>
<rect x="48.75" y="11.25" width="7.5" height="3.75" fill="white"/>
<rect x="56.25" y="11.25" width="15" height="3.75" fill="black"/>
<rect x="15" y="15" width="7.5" height="3.75" fill="white"/>
<rect x="22.5" y="15" width="15" height="3.75" fill="black"/>
<rect x="48.75" y="15" width="7.5" height="3.75" fill="white"/>
<rect x="56.25" y="15" width="15" height="3.75" fill="black"/>
<rect x="15" y="18.75" width="7.5" height="3.75" fill="white"/>
<rect x="22.5" y="18.75" width="15" height="3.75" fill="black"/>
<rect x="15" y="22.5" width="7.5" height="3.75" fill="white"/>
<rect x="22.5" y="22.5" width="15" height="3.75" fill="black"/>
<rect x="48.75" y="18.75" width="7.5" height="3.75" fill="white"/>
<rect x="56.25" y="18.75" width="15" height="3.75" fill="black"/>
<rect x="48.75" y="22.5" width="7.5" height="3.75" fill="white"/>
<rect x="56.25" y="22.5" width="15" height="3.75" fill="black"/>
</svg>
