<?xml version="1.0" encoding="UTF-8" standalone="no"?>
<!DOCTYPE svg PUBLIC "-//W3C//DTD SVG 1.1//EN" "http://www.w3.org/Graphics/SVG/1.1/DTD/svg11.dtd">
<svg width="100%" height="100%" viewBox="0 0 32 32" version="1.1" xmlns="http://www.w3.org/2000/svg" xmlns:xlink="http://www.w3.org/1999/xlink" xml:space="preserve" xmlns:serif="http://www.serif.com/" style="fill-rule:evenodd;clip-rule:evenodd;stroke-linejoin:round;stroke-miterlimit:2;">
    <rect x="27" y="6" width="3" height="3" style="fill:rgb(221,71,63);"/>
    <path d="M3,6L3,12L6,12L6,9L9,9L9,6L3,6Z" style="fill:rgb(221,71,63);"/>
    <path d="M30,6L30,6L30,3L21,3L21,6L27,6L27,12L30,12L30,6Z" style="fill:rgb(221,71,63);"/>
    <path d="M24,12L24,6L21,6L21,12L24,12Z" style="fill:white;"/>
    <path d="M27,12L27,6L24,6L24,12L27,12Z"/>
    <rect x="15" y="6" width="3" height="3" style="fill:rgb(221,71,63);"/>
    <path d="M15,6L15,12L18,12L18,9L21,9L21,6L18,6L18,3L9,3L9,6L15,6Z" style="fill:rgb(221,71,63);"/>
    <path d="M12,12L12,6L9,6L9,12L12,12Z" style="fill:white;"/>
    <path d="M15,12L15,6L12,6L12,12L15,12Z"/>
    <rect x="6" y="18" width="3" height="3" style="fill:rgb(221,71,63);"/>
    <path d="M9,27L9,18L6,18L6,27L9,27Z" style="fill:rgb(221,71,63);"/>
    <path d="M12,21L12,27L18,27L18,24L15,24L15,21L12,21Z" style="fill:rgb(221,71,63);"/>
    <path d="M21,24L21,18L15,18L15,21L18,21L18,24L21,24Z" style="fill:rgb(221,71,63);"/>
    <path d="M27,27L27,18L24,18L24,27L27,27Z" style="fill:rgb(221,71,63);"/>
</svg>
