<svg width="60" height="20" viewBox="0 0 60 20" fill="none" xmlns="http://www.w3.org/2000/svg">
<rect y="13.3334" width="6.66664" height="6.66664" fill="#FF638D"/>
<rect y="6.66675" width="6.66664" height="6.66664" fill="#FF638D"/>
<rect x="6.66699" y="6.66675" width="6.66664" height="6.66664" fill="#FF638D"/>
<rect x="33.3329" y="6.66675" width="6.66664" height="6.66664" fill="#FF638D"/>
<rect x="13.3335" width="6.66664" height="6.66664" fill="#FF638D"/>
<rect x="40" width="6.66664" height="6.66664" fill="#FF638D"/>
<rect x="19.9998" width="6.66664" height="6.66664" fill="#FF638D"/>
<rect x="46.6661" width="6.66664" height="6.66664" fill="#FF638D"/>
<rect x="26.6667" width="6.66664" height="6.66664" fill="#FF638D"/>
<rect x="53.3329" width="6.66664" height="6.66664" fill="#FF638D"/>
<rect x="26.6667" y="6.66675" width="6.66664" height="6.66664" fill="#FF638D"/>
<rect x="53.3329" y="6.66675" width="6.66664" height="6.66664" fill="#FF638D"/>
<rect x="19.9998" y="6.66675" width="6.66664" height="6.66664" fill="black"/>
<rect x="46.6661" y="6.66675" width="6.66664" height="6.66664" fill="black"/>
<rect x="13.3335" y="6.66675" width="6.66664" height="6.66664" fill="white"/>
<rect x="40" y="6.66675" width="6.66664" height="6.66664" fill="white"/>
<rect x="26.6667" y="13.3334" width="6.66664" height="6.66664" fill="#FF638D"/>
<rect x="53.3329" y="13.3334" width="6.66664" height="6.66664" fill="#FF638D"/>
<rect x="19.9998" y="13.3334" width="6.66664" height="6.66664" fill="black"/>
<rect x="46.6661" y="13.3334" width="6.66664" height="6.66664" fill="black"/>
<rect x="13.3335" y="13.3334" width="6.66664" height="6.66664" fill="white"/>
<rect x="40" y="13.3333" width="6.66664" height="6.66664" fill="white"/>
</svg>
