<svg width="170" height="30" viewBox="0 0 170 30" fill="none" xmlns="http://www.w3.org/2000/svg">
<g clip-path="url(#clip0_624_3481)">
<rect y="20" width="9.99995" height="9.99995" fill="#DD473F"/>
<rect y="10" width="9.99995" height="9.99995" fill="#DD473F"/>
<rect x="10" y="10" width="9.99995" height="9.99995" fill="#DD473F"/>
<rect x="50" y="10" width="9.99995" height="9.99995" fill="#DD473F"/>
<rect x="20" width="9.99995" height="9.99995" fill="#DD473F"/>
<rect x="60" width="9.99995" height="9.99995" fill="#DD473F"/>
<rect x="30" width="9.99995" height="9.99995" fill="#DD473F"/>
<rect x="70" width="9.99995" height="9.99995" fill="#DD473F"/>
<rect x="40" width="9.99995" height="9.99995" fill="#DD473F"/>
<rect x="80" width="9.99995" height="9.99995" fill="#DD473F"/>
<rect x="100" width="9.99995" height="9.99995" fill="#DD473F"/>
<rect x="160" width="9.99995" height="9.99995" fill="#DD473F"/>
<rect x="130" width="9.99995" height="9.99995" fill="#DD473F"/>
<rect x="130" y="20" width="9.99995" height="9.99995" fill="#DD473F"/>
<rect x="40" y="10" width="9.99995" height="9.99995" fill="#DD473F"/>
<rect x="80" y="10" width="9.99995" height="9.99995" fill="#DD473F"/>
<rect x="100" y="10" width="9.99995" height="9.99995" fill="#DD473F"/>
<rect x="160" y="10" width="9.99995" height="9.99995" fill="#DD473F"/>
<rect x="120" y="10" width="9.99995" height="9.99995" fill="#DD473F"/>
<rect x="140" width="9.99995" height="9.99995" fill="#DD473F"/>
<rect x="30" y="10" width="9.99995" height="9.99995" fill="black"/>
<rect x="70" y="10" width="9.99995" height="9.99995" fill="black"/>
<rect x="20" y="10" width="9.99995" height="9.99995" fill="white"/>
<rect x="60" y="10" width="9.99995" height="9.99995" fill="white"/>
<rect x="40" y="20" width="9.99995" height="9.99995" fill="#DD473F"/>
<rect x="80" y="20" width="9.99995" height="9.99995" fill="#DD473F"/>
<rect x="100" y="20" width="9.99995" height="9.99995" fill="#DD473F"/>
<rect x="160" y="20" width="9.99995" height="9.99995" fill="#DD473F"/>
<rect x="120" y="20" width="9.99995" height="9.99995" fill="#DD473F"/>
<rect x="140" y="10" width="9.99995" height="9.99995" fill="#DD473F"/>
<rect x="30" y="20" width="9.99995" height="9.99995" fill="black"/>
<rect x="70" y="20" width="9.99995" height="9.99995" fill="black"/>
<rect x="20" y="20" width="9.99995" height="9.99995" fill="white"/>
<rect x="60" y="20" width="9.99995" height="9.99995" fill="white"/>
</g>
<defs>
<clipPath id="clip0_624_3481">
<rect width="170" height="30" fill="white"/>
</clipPath>
</defs>
</svg>
