<svg width="70" height="70" viewBox="0 0 70 70" fill="none" xmlns="http://www.w3.org/2000/svg">
<path d="M0.331055 52.583L0.331055 49.583H3.33105L3.33105 46.583H6.33105L6.33105 43.583H9.33105V40.583H12.3311L12.3311 37.583H15.3311V34.583H18.3311V31.583H21.3311V28.583H24.3311V25.583H27.3311L27.3311 22.583L30.3311 22.583V19.583H33.3311V16.583H36.3311V19.583H39.3311V22.583H42.3311V25.583H45.3311V28.583H48.3311V31.583H51.3311V34.583H54.3311V37.583H57.3311V40.583H60.3311V43.583H63.3311V46.583L66.3311 46.583V49.583H69.3311V52.583L0.331055 52.583Z" fill="#2245C5"/>
</svg>
