<svg width="18" height="15" viewBox="0 0 18 15" fill="none" xmlns="http://www.w3.org/2000/svg">
<path fill-rule="evenodd" clip-rule="evenodd" d="M4 0.5H7V1.5H11V0.5H14V1.5H15V2.5H16V4.5H17V7.5H18V11.5H17V12.5H16V13.5H15V14.5H12V13.5H6V14.5H3V13.5H2V12.5H1V11.5H0V7.5H1V4.5H2V2.5H3V1.5H4V0.5ZM14 12.5V11.5H15V10.5H16V8.5H15V4.5H14V3.5H13V2.5H12V3.5H6V2.5H5V3.5H4V4.5H3V8.5H2V10.5H3V11.5H4V12.5H6V11.5H12V12.5H14Z" fill="white"/>
<path fill-rule="evenodd" clip-rule="evenodd" d="M14 12.5V11.5H15V10.5H16V8.5H15V4.5H14V3.5H13V2.5H12V3.5H6V2.5H5V3.5H4V4.5H3V8.5H2V10.5H3V11.5H4V12.5H6V11.5H12V12.5H14ZM5 7.5V6.5H7V7.5H8V9.5H7V10.5H5V9.5H4V7.5H5ZM14 7.5H13V6.5H11V7.5H10V9.5H11V10.5H13V9.5H14V7.5Z" fill="white"/>
</svg>
