<svg width="14" height="21" viewBox="0 0 14 21" fill="none" xmlns="http://www.w3.org/2000/svg">
<rect width="1" height="1" transform="matrix(-1 0 0 1 6 13)" fill="#A259FF"/>
<rect x="6" y="8" width="1" height="1" fill="#A259FF"/>
<rect x="6" y="11" width="1" height="1" fill="#A259FF"/>
<rect x="6" y="13" width="1" height="1" fill="#A259FF"/>
<rect width="1" height="1" transform="matrix(-1 0 0 1 6 7)" fill="#A259FF"/>
<rect x="6" y="7" width="1" height="1" fill="#A259FF"/>
<rect x="6" y="9" width="1" height="1" fill="#A259FF"/>
<rect x="6" y="10" width="1" height="1" fill="#A259FF"/>
<rect x="6" y="12" width="1" height="1" fill="#A259FF"/>
<rect width="1" height="1" transform="matrix(-1 0 0 1 5 13)" fill="#A259FF"/>
<rect width="1" height="1" transform="matrix(-1 0 0 1 4 13)" fill="#A259FF"/>
<rect width="1" height="1" transform="matrix(-1 0 0 1 3 8)" fill="#A259FF"/>
<rect width="1" height="1" transform="matrix(-1 0 0 1 5 8)" fill="#A259FF"/>
<rect width="1" height="1" transform="matrix(-1 0 0 1 6 8)" fill="#A259FF"/>
<rect width="1" height="1" transform="matrix(-1 0 0 1 2 8)" fill="#A259FF"/>
<rect width="1" height="1" transform="matrix(-1 0 0 1 4 8)" fill="#A259FF"/>
<rect width="1" height="1" transform="matrix(-1 0 0 1 1 9)" fill="#A259FF"/>
<rect width="1" height="1" transform="matrix(-1 0 0 1 1 10)" fill="#A259FF"/>
<rect width="1" height="1" transform="matrix(-1 0 0 1 1 11)" fill="#A259FF"/>
<rect width="1" height="1" transform="matrix(-1 0 0 1 2 9)" fill="#A259FF"/>
<rect width="1" height="1" transform="matrix(-1 0 0 1 2 10)" fill="#A259FF"/>
<rect width="1" height="1" transform="matrix(-1 0 0 1 4 9)" fill="#A259FF"/>
<rect width="1" height="1" transform="matrix(-1 0 0 1 4 10)" fill="#A259FF"/>
<rect width="1" height="1" transform="matrix(-1 0 0 1 3 9)" fill="#A259FF"/>
<rect width="1" height="1" transform="matrix(-1 0 0 1 3 10)" fill="#A259FF"/>
<rect width="1" height="1" transform="matrix(-1 0 0 1 5 9)" fill="#A259FF"/>
<rect width="1" height="1" transform="matrix(-1 0 0 1 5 10)" fill="#A259FF"/>
<rect width="1" height="1" transform="matrix(-1 0 0 1 6 9)" fill="#A259FF"/>
<rect width="1" height="1" transform="matrix(-1 0 0 1 6 10)" fill="#A259FF"/>
<rect width="1" height="1" transform="matrix(-1 0 0 1 2 11)" fill="#A259FF"/>
<rect width="1" height="1" transform="matrix(-1 0 0 1 4 11)" fill="#A259FF"/>
<rect width="1" height="1" transform="matrix(-1 0 0 1 3 11)" fill="#A259FF"/>
<rect width="1" height="1" transform="matrix(-1 0 0 1 5 11)" fill="#A259FF"/>
<rect width="1" height="1" transform="matrix(-1 0 0 1 6 11)" fill="#A259FF"/>
<rect width="1" height="1" transform="matrix(-1 0 0 1 2 12)" fill="#A259FF"/>
<rect width="1" height="1" transform="matrix(-1 0 0 1 4 12)" fill="#A259FF"/>
<rect width="1" height="1" transform="matrix(-1 0 0 1 3 12)" fill="#A259FF"/>
<rect width="1" height="1" transform="matrix(-1 0 0 1 5 12)" fill="#A259FF"/>
<rect width="1" height="1" transform="matrix(-1 0 0 1 6 12)" fill="#A259FF"/>
<rect width="1" height="1" transform="matrix(-1 0 0 1 5 7)" fill="#A259FF"/>
<rect width="1" height="1" transform="matrix(-1 0 0 1 4 7)" fill="#A259FF"/>
<rect width="1" height="1" transform="matrix(-1 0 0 1 3 7)" fill="#A259FF"/>
<rect width="1" height="1" transform="matrix(-1 0 0 1 3 13)" fill="#A259FF"/>
<rect width="1" height="1" transform="matrix(-1 0 0 1 6 6)" fill="#F24E1E"/>
<rect x="6" y="2" width="1" height="1" fill="#F24E1E"/>
<rect x="6" y="4" width="1" height="1" fill="#F24E1E"/>
<rect x="6" y="6" width="1" height="1" fill="#F24E1E"/>
<rect width="1" height="1" transform="matrix(-1 0 0 1 6 1)" fill="#F24E1E"/>
<rect x="6" y="1" width="1" height="1" fill="#F24E1E"/>
<rect x="6" y="3" width="1" height="1" fill="#F24E1E"/>
<rect x="6" y="5" width="1" height="1" fill="#F24E1E"/>
<rect width="1" height="1" transform="matrix(-1 0 0 1 5 6)" fill="#F24E1E"/>
<rect width="1" height="1" transform="matrix(-1 0 0 1 4 6)" fill="#F24E1E"/>
<rect width="1" height="1" transform="matrix(-1 0 0 1 3 2)" fill="#F24E1E"/>
<rect width="1" height="1" transform="matrix(-1 0 0 1 5 2)" fill="#F24E1E"/>
<rect width="1" height="1" transform="matrix(-1 0 0 1 6 2)" fill="#F24E1E"/>
<rect width="1" height="1" transform="matrix(-1 0 0 1 2 2)" fill="#F24E1E"/>
<rect width="1" height="1" transform="matrix(-1 0 0 1 4 2)" fill="#F24E1E"/>
<rect width="1" height="1" transform="matrix(-1 0 0 1 2 1)" fill="#F24E1E"/>
<rect width="1" height="1" transform="matrix(-1 0 0 1 1 2)" fill="#F24E1E"/>
<rect width="1" height="1" transform="matrix(-1 0 0 1 1 3)" fill="#F24E1E"/>
<rect width="1" height="1" transform="matrix(-1 0 0 1 1 4)" fill="#F24E1E"/>
<rect width="1" height="1" transform="matrix(-1 0 0 1 2 3)" fill="#F24E1E"/>
<rect width="1" height="1" transform="matrix(-1 0 0 1 4 3)" fill="#F24E1E"/>
<rect width="1" height="1" transform="matrix(-1 0 0 1 3 3)" fill="#F24E1E"/>
<rect width="1" height="1" transform="matrix(-1 0 0 1 5 3)" fill="#F24E1E"/>
<rect width="1" height="1" transform="matrix(-1 0 0 1 6 3)" fill="#F24E1E"/>
<rect width="1" height="1" transform="matrix(-1 0 0 1 2 4)" fill="#F24E1E"/>
<rect width="1" height="1" transform="matrix(-1 0 0 1 4 4)" fill="#F24E1E"/>
<rect width="1" height="1" transform="matrix(-1 0 0 1 3 4)" fill="#F24E1E"/>
<rect width="1" height="1" transform="matrix(-1 0 0 1 5 4)" fill="#F24E1E"/>
<rect width="1" height="1" transform="matrix(-1 0 0 1 6 4)" fill="#F24E1E"/>
<rect width="1" height="1" transform="matrix(-1 0 0 1 2 5)" fill="#F24E1E"/>
<rect width="1" height="1" transform="matrix(-1 0 0 1 4 5)" fill="#F24E1E"/>
<rect width="1" height="1" transform="matrix(-1 0 0 1 3 5)" fill="#F24E1E"/>
<rect width="1" height="1" transform="matrix(-1 0 0 1 5 5)" fill="#F24E1E"/>
<rect width="1" height="1" transform="matrix(-1 0 0 1 6 5)" fill="#F24E1E"/>
<rect width="1" height="1" transform="matrix(-1 0 0 1 5 1)" fill="#F24E1E"/>
<rect width="1" height="1" transform="matrix(-1 0 0 1 4 1)" fill="#F24E1E"/>
<rect width="1" height="1" transform="matrix(-1 0 0 1 3 1)" fill="#F24E1E"/>
<rect width="1" height="1" transform="matrix(-1 0 0 1 3 6)" fill="#F24E1E"/>
<rect x="6" width="1" height="1" fill="#F24E1E"/>
<rect width="1" height="1" transform="matrix(-1 0 0 1 6 0)" fill="#F24E1E"/>
<rect width="1" height="1" transform="matrix(-1 0 0 1 5 0)" fill="#F24E1E"/>
<rect width="1" height="1" transform="matrix(-1 0 0 1 4 0)" fill="#F24E1E"/>
<rect width="1" height="1" transform="matrix(-1 0 0 1 3 0)" fill="#F24E1E"/>
<rect x="8" y="6" width="1" height="1" fill="#FF7262"/>
<rect width="1" height="1" transform="matrix(-1 0 0 1 8 2)" fill="#FF7262"/>
<rect width="1" height="1" transform="matrix(-1 0 0 1 8 4)" fill="#FF7262"/>
<rect width="1" height="1" transform="matrix(-1 0 0 1 8 6)" fill="#FF7262"/>
<rect x="8" y="1" width="1" height="1" fill="#FF7262"/>
<rect width="1" height="1" transform="matrix(-1 0 0 1 8 1)" fill="#FF7262"/>
<rect width="1" height="1" transform="matrix(-1 0 0 1 8 3)" fill="#FF7262"/>
<rect width="1" height="1" transform="matrix(-1 0 0 1 8 5)" fill="#FF7262"/>
<rect x="9" y="6" width="1" height="1" fill="#FF7262"/>
<rect x="10" y="6" width="1" height="1" fill="#FF7262"/>
<rect x="11" y="2" width="1" height="1" fill="#FF7262"/>
<rect x="9" y="2" width="1" height="1" fill="#FF7262"/>
<rect x="8" y="2" width="1" height="1" fill="#FF7262"/>
<rect x="12" y="2" width="1" height="1" fill="#FF7262"/>
<rect x="10" y="2" width="1" height="1" fill="#FF7262"/>
<rect x="12" y="1" width="1" height="1" fill="#FF7262"/>
<rect x="13" y="2" width="1" height="1" fill="#FF7262"/>
<rect x="13" y="3" width="1" height="1" fill="#FF7262"/>
<rect x="13" y="4" width="1" height="1" fill="#FF7262"/>
<rect x="12" y="3" width="1" height="1" fill="#FF7262"/>
<rect x="10" y="3" width="1" height="1" fill="#FF7262"/>
<rect x="11" y="3" width="1" height="1" fill="#FF7262"/>
<rect x="9" y="3" width="1" height="1" fill="#FF7262"/>
<rect x="8" y="3" width="1" height="1" fill="#FF7262"/>
<rect x="12" y="4" width="1" height="1" fill="#FF7262"/>
<rect x="10" y="4" width="1" height="1" fill="#FF7262"/>
<rect x="11" y="4" width="1" height="1" fill="#FF7262"/>
<rect x="9" y="4" width="1" height="1" fill="#FF7262"/>
<rect x="8" y="4" width="1" height="1" fill="#FF7262"/>
<rect x="12" y="5" width="1" height="1" fill="#FF7262"/>
<rect x="10" y="5" width="1" height="1" fill="#FF7262"/>
<rect x="11" y="5" width="1" height="1" fill="#FF7262"/>
<rect x="9" y="5" width="1" height="1" fill="#FF7262"/>
<rect x="8" y="5" width="1" height="1" fill="#FF7262"/>
<rect x="9" y="1" width="1" height="1" fill="#FF7262"/>
<rect x="10" y="1" width="1" height="1" fill="#FF7262"/>
<rect x="11" y="1" width="1" height="1" fill="#FF7262"/>
<rect x="11" y="6" width="1" height="1" fill="#FF7262"/>
<rect width="1" height="1" transform="matrix(-1 0 0 1 8 0)" fill="#FF7262"/>
<rect x="8" width="1" height="1" fill="#FF7262"/>
<rect x="9" width="1" height="1" fill="#FF7262"/>
<rect x="10" width="1" height="1" fill="#FF7262"/>
<rect x="11" width="1" height="1" fill="#FF7262"/>
<rect width="1" height="1" transform="matrix(-1 0 0 1 6 19)" fill="#0ACF83"/>
<rect x="6" y="15" width="1" height="1" fill="#0ACF83"/>
<rect x="5" y="15" width="1" height="1" fill="#0ACF83"/>
<rect x="6" y="17" width="1" height="1" fill="#0ACF83"/>
<rect x="5" y="17" width="1" height="1" fill="#0ACF83"/>
<rect width="1" height="1" transform="matrix(-1 0 0 1 6 14)" fill="#0ACF83"/>
<rect x="6" y="14" width="1" height="1" fill="#0ACF83"/>
<rect x="6" y="16" width="1" height="1" fill="#0ACF83"/>
<rect x="5" y="16" width="1" height="1" fill="#0ACF83"/>
<rect x="6" y="18" width="1" height="1" fill="#0ACF83"/>
<rect x="5" y="18" width="1" height="1" fill="#0ACF83"/>
<rect width="1" height="1" transform="matrix(-1 0 0 1 5 19)" fill="#0ACF83"/>
<rect width="1" height="1" transform="matrix(-1 0 0 1 4 19)" fill="#0ACF83"/>
<rect width="1" height="1" transform="matrix(-1 0 0 1 3 15)" fill="#0ACF83"/>
<rect width="1" height="1" transform="matrix(-1 0 0 1 5 15)" fill="#0ACF83"/>
<rect width="1" height="1" transform="matrix(-1 0 0 1 2 15)" fill="#0ACF83"/>
<rect width="1" height="1" transform="matrix(-1 0 0 1 4 15)" fill="#0ACF83"/>
<rect width="1" height="1" transform="matrix(-1 0 0 1 1 16)" fill="#0ACF83"/>
<rect width="1" height="1" transform="matrix(-1 0 0 1 1 17)" fill="#0ACF83"/>
<rect width="1" height="1" transform="matrix(-1 0 0 1 1 18)" fill="#0ACF83"/>
<rect width="1" height="1" transform="matrix(-1 0 0 1 2 19)" fill="#0ACF83"/>
<rect width="1" height="1" transform="matrix(-1 0 0 1 2 16)" fill="#0ACF83"/>
<rect width="1" height="1" transform="matrix(-1 0 0 1 4 16)" fill="#0ACF83"/>
<rect width="1" height="1" transform="matrix(-1 0 0 1 3 16)" fill="#0ACF83"/>
<rect width="1" height="1" transform="matrix(-1 0 0 1 5 16)" fill="#0ACF83"/>
<rect width="1" height="1" transform="matrix(-1 0 0 1 2 17)" fill="#0ACF83"/>
<rect width="1" height="1" transform="matrix(-1 0 0 1 4 17)" fill="#0ACF83"/>
<rect width="1" height="1" transform="matrix(-1 0 0 1 3 17)" fill="#0ACF83"/>
<rect width="1" height="1" transform="matrix(-1 0 0 1 5 17)" fill="#0ACF83"/>
<rect width="1" height="1" transform="matrix(-1 0 0 1 2 18)" fill="#0ACF83"/>
<rect width="1" height="1" transform="matrix(-1 0 0 1 4 18)" fill="#0ACF83"/>
<rect width="1" height="1" transform="matrix(-1 0 0 1 3 18)" fill="#0ACF83"/>
<rect width="1" height="1" transform="matrix(-1 0 0 1 5 18)" fill="#0ACF83"/>
<rect width="1" height="1" transform="matrix(-1 0 0 1 3 19)" fill="#0ACF83"/>
<rect width="1" height="1" transform="matrix(-1 0 0 1 5 14)" fill="#0ACF83"/>
<rect width="1" height="1" transform="matrix(-1 0 0 1 5 20)" fill="#0ACF83"/>
<rect width="1" height="1" transform="matrix(-1 0 0 1 4 14)" fill="#0ACF83"/>
<rect width="1" height="1" transform="matrix(-1 0 0 1 4 20)" fill="#0ACF83"/>
<rect width="1" height="1" transform="matrix(-1 0 0 1 3 14)" fill="#0ACF83"/>
<rect width="1" height="1" transform="matrix(-1 0 0 1 3 20)" fill="#0ACF83"/>
<rect x="8" y="12" width="1" height="1" fill="#1ABCFE"/>
<rect x="9" y="13" width="1" height="1" fill="#1ABCFE"/>
<rect x="10" y="13" width="1" height="1" fill="#1ABCFE"/>
<rect x="8" y="8" width="1" height="1" fill="#1ABCFE"/>
<rect x="7" y="10" width="1" height="1" fill="#1ABCFE"/>
<rect x="7" y="11" width="1" height="1" fill="#1ABCFE"/>
<rect x="8" y="10" width="1" height="1" fill="#1ABCFE"/>
<rect x="8" y="11" width="1" height="1" fill="#1ABCFE"/>
<rect x="11" y="8" width="1" height="1" fill="#1ABCFE"/>
<rect x="9" y="8" width="1" height="1" fill="#1ABCFE"/>
<rect x="12" y="8" width="1" height="1" fill="#1ABCFE"/>
<rect x="10" y="8" width="1" height="1" fill="#1ABCFE"/>
<rect x="13" y="9" width="1" height="1" fill="#1ABCFE"/>
<rect x="13" y="10" width="1" height="1" fill="#1ABCFE"/>
<rect x="13" y="11" width="1" height="1" fill="#1ABCFE"/>
<rect x="12" y="9" width="1" height="1" fill="#1ABCFE"/>
<rect x="10" y="9" width="1" height="1" fill="#1ABCFE"/>
<rect x="11" y="9" width="1" height="1" fill="#1ABCFE"/>
<rect x="9" y="9" width="1" height="1" fill="#1ABCFE"/>
<rect x="12" y="10" width="1" height="1" fill="#1ABCFE"/>
<rect x="12" y="11" width="1" height="1" fill="#1ABCFE"/>
<rect x="10" y="10" width="1" height="1" fill="#1ABCFE"/>
<rect x="10" y="11" width="1" height="1" fill="#1ABCFE"/>
<rect x="11" y="10" width="1" height="1" fill="#1ABCFE"/>
<rect x="11" y="11" width="1" height="1" fill="#1ABCFE"/>
<rect x="9" y="10" width="1" height="1" fill="#1ABCFE"/>
<rect x="9" y="11" width="1" height="1" fill="#1ABCFE"/>
<rect x="12" y="12" width="1" height="1" fill="#1ABCFE"/>
<rect x="10" y="12" width="1" height="1" fill="#1ABCFE"/>
<rect x="11" y="12" width="1" height="1" fill="#1ABCFE"/>
<rect x="9" y="12" width="1" height="1" fill="#1ABCFE"/>
<rect x="11" y="13" width="1" height="1" fill="#1ABCFE"/>
<rect x="9" y="7" width="1" height="1" fill="#1ABCFE"/>
<rect x="10" y="7" width="1" height="1" fill="#1ABCFE"/>
<rect x="11" y="7" width="1" height="1" fill="#1ABCFE"/>
<rect x="7" y="9" width="1" height="1" fill="#1ABCFE"/>
<rect x="8" y="9" width="1" height="1" fill="#1ABCFE"/>
</svg>
