<?xml version="1.0" encoding="UTF-8" standalone="no"?>
<!DOCTYPE svg PUBLIC "-//W3C//DTD SVG 1.1//EN" "http://www.w3.org/Graphics/SVG/1.1/DTD/svg11.dtd">
<svg width="100%" height="100%" viewBox="0 0 14 21" version="1.1" xmlns="http://www.w3.org/2000/svg" xmlns:xlink="http://www.w3.org/1999/xlink" xml:space="preserve" xmlns:serif="http://www.serif.com/" style="fill-rule:evenodd;clip-rule:evenodd;stroke-linejoin:round;stroke-miterlimit:2;">
    <path d="M7,14L2,14L2,13L1,13L1,12L0,12L0,9L1,9L1,8L2,8L2,7L7,7L7,14Z" style="fill:rgb(162,89,255);"/>
    <path d="M7,7L2,7L2,6L1,6L1,5L0,5L0,2L1,2L1,1L2,1L2,0L7,0L7,7Z" style="fill:rgb(242,78,30);"/>
    <path d="M12,0L7,0L7,7L12,7L12,6L13,6L13,5L14,5L14,2L13,2L13,1L12,1L12,0Z" style="fill:rgb(255,114,98);"/>
    <path d="M7,19L6,19L6,20L5,20L5,21L2,21L2,20L1,20L1,19L0,19L0,16L1,16L1,15L2,15L2,14L7,14L7,19Z" style="fill:rgb(10,207,131);"/>
    <path d="M8,13L9,13L9,14L12,14L12,13L13,13L13,12L14,12L14,9L13,9L13,8L12,8L12,7L9,7L9,8L8,8L8,9L7,9L7,12L8,12L8,13Z" style="fill:rgb(26,188,254);"/>
</svg>
