<svg width="26" height="27" viewBox="0 0 26 27" fill="none" xmlns="http://www.w3.org/2000/svg">
<path d="M9 26.5H17V25.5H19V24.5H21V23.5H22V22.5H23V21.5H24V19.5H25V17.5H26V9.5H25V7.5H24V5.5H23V4.5H22V3.5H21V2.5H19V1.5H17V0.5H9V1.5H7V2.5H5V3.5H4V4.5H3V5.5H2V7.5H1V9.5H-3.8743e-07V17.5H1V19.5H2V21.5H3V22.5H4V23.5H5V24.5H7V25.5H9V26.5Z" fill="white"/>
<path fill-rule="evenodd" clip-rule="evenodd" d="M5 6.5H8V7.5H11V6.5H15V7.5H18V6.5H21V7.5V8.5V9.5H20V10.5H21V11.5H22V16.5H21V17.5H20V18.5H18V19.5H15V20.5H16V21.5H17V22.5H18V23.5V25.5H17V26.5H9V25.5V23.5H7V22.5H5V21.5V20.5H4V19.5H3V18.5H5V19.5H6V20.5H7V21.5H10V20.5H11V19.5H8V18.5H6V17.5H5V16.5H4V11.5H5V10.5H6V9.5H5V8.5V7.5V6.5Z" fill="black"/>
</svg>
