<svg width="26" height="27" viewBox="0 0 26 27" fill="none" xmlns="http://www.w3.org/2000/svg">
<path d="M9 26.5H17V25.5H19V24.5H21V23.5H22V22.5H23V21.5H24V19.5H25V17.5H26V9.5H25V7.5H24V5.5H23V4.5H22V3.5H21V2.5H19V1.5H17V0.5H9V1.5H7V2.5H5V3.5H4V4.5H3V5.5H2V7.5H1V9.5H-3.8743e-07V17.5H1V19.5H2V21.5H3V22.5H4V23.5H5V24.5H7V25.5H9V26.5Z" fill="white"/>
<rect x="9" y="23.5" width="9" height="2" fill="black"/>
<rect x="9" y="25.5" width="8" height="1" fill="black"/>
<rect x="5" y="21.5" width="12" height="1" fill="black"/>
<rect x="7" y="22.5" width="11" height="1" fill="black"/>
<rect x="5" y="20.5" width="2" height="1" fill="black"/>
<rect x="10" y="20.5" width="6" height="1" fill="black"/>
<rect x="11" y="19.5" width="4" height="1" fill="black"/>
<rect x="8" y="18.5" width="10" height="1" fill="black"/>
<rect x="6" y="17.5" width="14" height="1" fill="black"/>
<rect x="6" y="9.5" width="14" height="1" fill="black"/>
<rect x="5" y="8.5" width="16" height="1" fill="black"/>
<rect x="5" y="7.5" width="16" height="1" fill="black"/>
<rect x="5" y="6.5" width="3" height="1" fill="black"/>
<rect x="18" y="6.5" width="3" height="1" fill="black"/>
<rect x="11" y="6.5" width="4" height="1" fill="black"/>
<rect x="5" y="16.5" width="16" height="1" fill="black"/>
<rect x="5" y="10.5" width="16" height="1" fill="black"/>
<rect x="4" y="11.5" width="18" height="5" fill="black"/>
<rect x="4" y="19.5" width="2" height="1" fill="black"/>
<rect x="3" y="18.5" width="2" height="1" fill="black"/>
</svg>
