<svg width="101" height="40" viewBox="0 0 101 40" fill="none" xmlns="http://www.w3.org/2000/svg">
<path d="M56.6038 0H18.8679V6.66667H56.6038V0Z" fill="#254EFB"/>
<path d="M100.629 0H62.8931V6.66667H100.629V0Z" fill="#254EFB"/>
<path d="M25.1572 6.66663H18.8679V13.3333H25.1572V6.66663Z" fill="#254EFB"/>
<path d="M37.7358 6.66663H25.1572V13.3333H37.7358V6.66663Z" fill="white"/>
<path d="M50.3145 6.66663H37.7358V13.3333H50.3145V6.66663Z" fill="black"/>
<path d="M56.6038 6.66663H50.3145V13.3333H56.6038V6.66663Z" fill="#254EFB"/>
<path d="M69.1824 6.66663H62.8931V13.3333H69.1824V6.66663Z" fill="#254EFB"/>
<path d="M81.761 6.66663H69.1824V13.3333H81.761V6.66663Z" fill="white"/>
<path d="M94.3396 6.66663H81.761V13.3333H94.3396V6.66663Z" fill="black"/>
<path d="M100.629 6.66663H94.3396V13.3333H100.629V6.66663Z" fill="#254EFB"/>
<path d="M25.1572 13.3333H0V19.9999H25.1572V13.3333Z" fill="#254EFB"/>
<path d="M37.7358 13.3333H25.1572V19.9999H37.7358V13.3333Z" fill="white"/>
<path d="M50.3145 13.3333H37.7358V19.9999H50.3145V13.3333Z" fill="black"/>
<path d="M69.1824 13.3333H50.3145V19.9999H69.1824V13.3333Z" fill="#254EFB"/>
<path d="M81.761 13.3333H69.1824V19.9999H81.761V13.3333Z" fill="white"/>
<path d="M94.3396 13.3333H81.761V19.9999H94.3396V13.3333Z" fill="black"/>
<path d="M100.629 13.3333H94.3396V19.9999H100.629V13.3333Z" fill="#254EFB"/>
<path d="M6.28931 20H0V26.6667H6.28931V20Z" fill="#254EFB"/>
<path d="M25.1572 20H18.8679V26.6667H25.1572V20Z" fill="#254EFB"/>
<path d="M37.7358 20H25.1572V26.6667H37.7358V20Z" fill="white"/>
<path d="M50.3145 20H37.7358V26.6667H50.3145V20Z" fill="black"/>
<path d="M56.6038 20H50.3145V26.6667H56.6038V20Z" fill="#254EFB"/>
<path d="M69.1824 20H62.8931V26.6667H69.1824V20Z" fill="#254EFB"/>
<path d="M81.761 20H69.1824V26.6667H81.761V20Z" fill="white"/>
<path d="M94.3396 20H81.761V26.6667H94.3396V20Z" fill="black"/>
<path d="M100.629 20H94.3396V26.6667H100.629V20Z" fill="#254EFB"/>
<path d="M6.28931 26.6666H0V33.3333H6.28931V26.6666Z" fill="#254EFB"/>
<path d="M25.1572 26.6666H18.8679V33.3333H25.1572V26.6666Z" fill="#254EFB"/>
<path d="M37.7358 26.6666H25.1572V33.3333H37.7358V26.6666Z" fill="white"/>
<path d="M50.3145 26.6666H37.7358V33.3333H50.3145V26.6666Z" fill="black"/>
<path d="M56.6038 26.6666H50.3145V33.3333H56.6038V26.6666Z" fill="#254EFB"/>
<path d="M69.1824 26.6666H62.8931V33.3333H69.1824V26.6666Z" fill="#254EFB"/>
<path d="M81.761 26.6666H69.1824V33.3333H81.761V26.6666Z" fill="white"/>
<path d="M94.3396 26.6666H81.761V33.3333H94.3396V26.6666Z" fill="black"/>
<path d="M100.629 26.6666H94.3396V33.3333H100.629V26.6666Z" fill="#254EFB"/>
<path d="M56.6038 33.3334H18.8679V40H56.6038V33.3334Z" fill="#254EFB"/>
<path d="M100.629 33.3334H62.8931V40H100.629V33.3334Z" fill="#254EFB"/>
</svg>
