<svg width="32" height="32" viewBox="0 0 32 32" fill="none" xmlns="http://www.w3.org/2000/svg">
<rect x="24" y="6" width="3" height="3.00001" fill="black"/>
<rect x="27" y="6" width="3.00001" height="3.00001" fill="#DD473F"/>
<rect x="27" y="6" width="3.00001" height="3.00001" fill="#DD473F"/>
<rect x="21" y="3" width="9.00002" height="3.00001" fill="#DD473F"/>
<rect x="18" y="6" width="3" height="3.00001" fill="#DD473F"/>
<rect x="3" y="6" width="6.00001" height="3.00001" fill="#DD473F"/>
<rect x="3" y="9" width="3.00001" height="3.00001" fill="#DD473F"/>
<rect x="27" y="9" width="3.00001" height="3.00001" fill="#DD473F"/>
<rect x="21" y="6" width="3.00001" height="3.00001" fill="white"/>
<rect x="21" y="9" width="3.00001" height="3.00001" fill="white"/>
<rect x="24" y="9" width="3" height="3.00001" fill="black"/>
<rect x="12" y="6" width="3.00001" height="3.00001" fill="black"/>
<rect x="15" y="6" width="3.00001" height="3.00001" fill="#DD473F"/>
<rect x="15" y="6" width="3.00001" height="3.00001" fill="#DD473F"/>
<rect x="9" y="3" width="9.00002" height="3.00001" fill="#DD473F"/>
<rect x="15" y="9" width="3.00001" height="3.00001" fill="#DD473F"/>
<rect x="9" y="6" width="3.00001" height="3.00001" fill="white"/>
<rect x="9" y="9" width="3.00001" height="3.00001" fill="white"/>
<rect x="12" y="9" width="3.00001" height="3.00001" fill="black"/>
<rect x="12" y="24" width="3.00001" height="3.00001" fill="#DD473F"/>
<rect x="6" y="24" width="3.00001" height="3.00001" fill="#DD473F"/>
<rect x="6" y="18" width="3.00001" height="3.00001" fill="#DD473F"/>
<rect x="6" y="18" width="3.00001" height="3.00001" fill="#DD473F"/>
<rect x="6" y="21" width="3.00001" height="3.00001" fill="#DD473F"/>
<rect x="12" y="21" width="3.00001" height="3.00001" fill="#DD473F"/>
<rect x="15" y="24" width="3.00001" height="3.00001" fill="#DD473F"/>
<rect x="15" y="18" width="3.00001" height="3.00001" fill="#DD473F"/>
<rect x="15" y="18" width="3.00001" height="3.00001" fill="#DD473F"/>
<rect x="18" y="18" width="3.00001" height="3.00001" fill="#DD473F"/>
<rect x="18" y="18" width="3.00001" height="3.00001" fill="#DD473F"/>
<rect x="18" y="21" width="3.00001" height="3.00001" fill="#DD473F"/>
<rect x="24" y="24" width="3.00001" height="3.00001" fill="#DD473F"/>
<rect x="24" y="18" width="3.00001" height="3.00001" fill="#DD473F"/>
<rect x="24" y="18" width="3.00001" height="3.00001" fill="#DD473F"/>
<rect x="24" y="21" width="3.00001" height="3.00001" fill="#DD473F"/>
</svg>
