<svg xmlns="http://www.w3.org/2000/svg" fill="none" viewBox="0.61 0.53 48 59.39">
    <path opacity="0.5"
          d="M24.6088 48.5508C26.4683 48.5508 27.9758 47.0434 27.9758 45.1839C27.9758 43.3243 26.4683 41.8169 24.6088 41.8169C22.7493 41.8169 21.2418 43.3243 21.2418 45.1839C21.2418 47.0434 22.7493 48.5508 24.6088 48.5508Z"
          fill="#EAC9F8"></path>
    <path fill-rule="evenodd" clip-rule="evenodd"
          d="M40.1708 55.8246L34.4223 53.1556C34.3118 53.1039 34.1922 53.0745 34.0704 53.0692C33.9485 53.0639 33.8268 53.0828 33.7123 53.1248C33.5978 53.1668 33.4927 53.2311 33.4031 53.3139C33.3136 53.3967 33.2413 53.4964 33.1905 53.6073L30.5113 59.3763C30.4347 59.5445 30.3094 59.6858 30.1516 59.7821C29.9939 59.8783 29.8109 59.925 29.6263 59.9162C29.4417 59.9073 29.264 59.8433 29.1162 59.7325C28.9684 59.6216 28.8572 59.4689 28.797 59.2942L22.9869 43.3011C22.9467 43.1831 22.9302 43.0584 22.9383 42.9341C22.9465 42.8097 22.9792 42.6882 23.0346 42.5766C23.0899 42.465 23.1668 42.3654 23.2608 42.2836C23.3548 42.2018 23.4641 42.1394 23.5823 42.1L34.4736 38.1377C34.5882 38.0952 34.71 38.0759 34.832 38.0808C34.9541 38.0858 35.0739 38.1148 35.1847 38.1664C35.2954 38.2179 35.3948 38.2909 35.4772 38.3812C35.5595 38.4714 35.6231 38.577 35.6644 38.692L41.4745 54.6646C41.5478 54.8419 41.5641 55.0375 41.5211 55.2245C41.4782 55.4114 41.3781 55.5804 41.2348 55.7079C41.0915 55.8354 40.9121 55.9151 40.7214 55.936C40.5308 55.9569 40.3383 55.918 40.1708 55.8246V55.8246Z"
          fill="#EAC9F8"></path>
    <path fill-rule="evenodd" clip-rule="evenodd"
          d="M9.04684 55.8246L14.7953 53.1556C14.9058 53.1039 15.0254 53.0745 15.1473 53.0692C15.2691 53.0639 15.3908 53.0828 15.5053 53.1248C15.6199 53.1668 15.7249 53.2311 15.8145 53.3139C15.9041 53.3967 15.9763 53.4964 16.0272 53.6073L18.7064 59.3763C18.783 59.5445 18.9082 59.6858 19.066 59.7821C19.2237 59.8783 19.4067 59.925 19.5913 59.9162C19.7759 59.9073 19.9536 59.8433 20.1014 59.7325C20.2493 59.6216 20.3605 59.4689 20.4206 59.2942L26.2307 43.3319C26.2758 43.2121 26.296 43.0845 26.2903 42.9566C26.2845 42.8288 26.2528 42.7035 26.1971 42.5883C26.1414 42.4731 26.0629 42.3704 25.9664 42.2865C25.8698 42.2026 25.7572 42.1391 25.6353 42.1L14.7851 38.1377C14.6705 38.0952 14.5487 38.0759 14.4267 38.0808C14.3046 38.0858 14.1848 38.1148 14.074 38.1664C13.9633 38.2179 13.8639 38.2909 13.7815 38.3812C13.6992 38.4714 13.6355 38.577 13.5943 38.692L7.78423 54.6646C7.71908 54.8371 7.70705 55.0252 7.74969 55.2046C7.79233 55.384 7.88769 55.5466 8.02349 55.6713C8.15929 55.7961 8.32932 55.8773 8.5117 55.9047C8.69407 55.932 8.88045 55.9041 9.04684 55.8246V55.8246Z"
          fill="#EAC9F8"></path>
    <path opacity="0.5"
          d="M24.6088 45.6253C25.5386 45.6253 26.2923 44.8715 26.2923 43.9418C26.2923 43.012 25.5386 42.2583 24.6088 42.2583C23.679 42.2583 22.9253 43.012 22.9253 43.9418C22.9253 44.8715 23.679 45.6253 24.6088 45.6253Z"
          fill="#EAC9F8"></path>
    <path d="M28.6657 2.85158L28.6657 2.8516L28.6709 2.85456C29.6623 3.42182 30.7842 3.72128 31.9264 3.72348H31.9279L33.7338 3.72348C33.7339 3.72348 33.734 3.72348 33.734 3.72348C34.6115 3.72438 35.4733 3.95577 36.2332 4.39446C36.9931 4.8332 37.6245 5.4639 38.064 6.22339L38.0641 6.2235L38.9674 7.7838L38.9675 7.78406C39.5395 8.77106 40.3574 9.593 41.3416 10.1697L41.3416 10.1698L41.3483 10.1736L42.9068 11.0656C42.9071 11.0658 42.9073 11.0659 42.9076 11.0661C43.6697 11.5052 44.3027 12.1373 44.743 12.8988C45.1834 13.6605 45.4154 14.5247 45.4156 15.4046C45.4156 15.4046 45.4156 15.4047 45.4156 15.4048V17.2626V17.2632C45.4166 18.4033 45.7166 19.5232 46.2856 20.5111L46.2865 20.5126L47.189 22.0715C47.189 22.0715 47.189 22.0716 47.1891 22.0716C47.6278 22.8335 47.8588 23.6973 47.8588 24.5765C47.8588 25.4557 47.6278 26.3195 47.1891 27.0814C47.189 27.0814 47.189 27.0815 47.189 27.0816L46.2865 28.6404L46.2855 28.6421C45.7248 29.6164 45.4252 30.719 45.4156 31.843V31.8494V33.6868V33.6874C45.4164 34.5673 45.1848 35.4317 44.7444 36.1934C44.304 36.9551 43.6703 37.5871 42.9075 38.0254L42.9054 38.0266L41.3518 38.9261C41.3507 38.9268 41.3495 38.9274 41.3484 38.928C40.3692 39.4823 39.5506 40.2814 38.9729 41.247L38.9728 41.247L38.9674 41.2563L38.0641 42.8166L38.0625 42.8194C37.6257 43.5814 36.9955 44.2145 36.2355 44.6548C35.4756 45.0951 34.6129 45.3269 33.7346 45.3269H31.9279L31.9264 45.3269C30.7842 45.3291 29.6623 45.6285 28.6709 46.1958L28.6657 46.1988L27.1196 47.0998C27.1191 47.1002 27.1185 47.1005 27.1179 47.1008C26.3544 47.5392 25.4893 47.7699 24.6088 47.7699C23.7283 47.7699 22.8633 47.5392 22.0997 47.1008C22.0991 47.1005 22.0985 47.1002 22.098 47.0998L20.5519 46.1988L20.5467 46.1958C19.5554 45.6285 18.4334 45.3291 17.2912 45.3269H17.2898H15.4831C14.6048 45.3269 13.742 45.0951 12.9821 44.6548C12.2222 44.2145 11.5919 43.5814 11.1552 42.8194L11.1535 42.8166L10.2502 41.2563L10.2503 41.2563L10.2448 41.247C9.66701 40.2814 8.84842 39.4823 7.86915 38.928C7.86804 38.9274 7.86694 38.9268 7.86584 38.9261L6.31226 38.0266L6.31014 38.0254C5.54727 37.5871 4.91362 36.9551 4.47322 36.1934C4.03281 35.4317 3.80127 34.5673 3.80197 33.6874V33.6868V31.8497C3.80197 31.8496 3.80197 31.8495 3.80197 31.8494C3.80241 30.7058 3.50247 29.5821 2.93218 28.5909L2.93116 28.5891L2.02866 27.0302C2.02854 27.03 2.02843 27.0298 2.02831 27.0296C1.58968 26.2679 1.35881 25.4042 1.35881 24.5252C1.35881 23.6461 1.58968 22.7825 2.02831 22.0207C2.02843 22.0205 2.02854 22.0203 2.02866 22.0201L2.93116 20.4613L2.93196 20.4599C3.49127 19.489 3.7909 18.3904 3.80194 17.27L3.80197 17.27V17.2626V15.4048C3.80197 15.4047 3.80197 15.4046 3.80197 15.4046C3.80221 14.5247 4.0342 13.6605 4.4746 12.8988C4.91488 12.1373 5.54793 11.5052 6.31005 11.0661C6.31031 11.0659 6.31056 11.0658 6.31082 11.0656L7.86935 10.1736L7.86937 10.1736L7.87597 10.1697C8.86018 9.593 9.67813 8.77106 10.2501 7.78406L10.2502 7.78381L11.1535 6.2235L11.1536 6.22339C11.5932 5.4639 12.2245 4.8332 12.9845 4.39446C13.7444 3.95577 14.6062 3.72438 15.4836 3.72348C15.4837 3.72348 15.4837 3.72348 15.4838 3.72348L17.2898 3.72348L17.2912 3.72348C18.4334 3.72128 19.5554 3.42182 20.5467 2.85456L20.5468 2.85458L20.5519 2.85158L22.098 1.95054C22.0986 1.95018 22.0992 1.94983 22.0998 1.94947C22.8634 1.51116 23.7284 1.28052 24.6088 1.28052C25.4892 1.28052 26.3543 1.51116 27.1178 1.94947C27.1184 1.94983 27.119 1.95018 27.1196 1.95054L28.6657 2.85158Z"
          fill="white" stroke="#5E58A5" stroke-width="1.5" stroke-miterlimit="10"></path>
    <path d="M14.9288 21.5637C14.7269 21.1293 14.3927 20.7699 13.9741 20.5371C13.5321 20.3028 13.0371 20.1861 12.537 20.1984H10.3197C10.2016 20.1984 10.0846 20.2218 9.97555 20.2673C9.86653 20.3129 9.76761 20.3796 9.68455 20.4636C9.60149 20.5476 9.53592 20.6473 9.49165 20.7568C9.44737 20.8663 9.42528 20.9836 9.42663 21.1017V29.7039C9.4234 29.787 9.44483 29.8691 9.48823 29.94C9.51342 29.9663 9.54372 29.9871 9.57726 30.0012C9.6108 30.0154 9.64687 30.0225 9.68326 30.0221H10.2376C10.274 30.0225 10.31 30.0154 10.3436 30.0012C10.3771 29.9871 10.4074 29.9663 10.4326 29.94C10.4837 29.8723 10.5092 29.7886 10.5045 29.7039V26.5012C10.5045 26.4277 10.5337 26.3572 10.5857 26.3052C10.6376 26.2532 10.7081 26.224 10.7816 26.224H12.4959C12.9961 26.2363 13.491 26.1196 13.933 25.8853C14.3503 25.6508 14.6841 25.292 14.8877 24.8588C15.1267 24.3417 15.2392 23.7752 15.2162 23.2061C15.249 22.6437 15.1506 22.0815 14.9288 21.5637V21.5637ZM13.7277 24.5713C13.5645 24.7339 13.3681 24.8593 13.152 24.939C12.9359 25.0187 12.7051 25.0509 12.4754 25.0333H10.8227C10.7846 25.0347 10.7465 25.0283 10.711 25.0143C10.6755 25.0004 10.6432 24.9793 10.6163 24.9523C10.5893 24.9253 10.5681 24.8931 10.5542 24.8575C10.5403 24.822 10.5338 24.784 10.5353 24.7459V21.6663C10.5353 21.5901 10.5656 21.517 10.6195 21.4631C10.6734 21.4092 10.7465 21.3789 10.8227 21.3789H12.4754C12.7085 21.3602 12.9428 21.3939 13.1612 21.4773C13.3797 21.5608 13.5767 21.692 13.738 21.8613C14.0252 22.2487 14.167 22.7247 14.1383 23.2061C14.1787 23.6967 14.032 24.1844 13.7277 24.5713V24.5713Z"
          fill="#5E58A5"></path>
    <path d="M10.2376 30.0632H9.68326C9.64405 30.0661 9.60474 30.0592 9.56889 30.0431C9.53303 30.0269 9.50178 30.0021 9.47796 29.9708C9.4283 29.8985 9.40311 29.8122 9.4061 29.7245V21.1223C9.40608 20.879 9.50201 20.6456 9.67305 20.4726C9.8441 20.2996 10.0765 20.2011 10.3197 20.1984H12.537C13.0399 20.1914 13.5368 20.3077 13.9844 20.5372C14.3996 20.7743 14.7326 21.1324 14.939 21.5637C15.1817 22.0871 15.2978 22.6603 15.2778 23.2369C15.2977 23.8102 15.1816 24.38 14.939 24.8999C14.7343 25.3323 14.4008 25.6908 13.9844 25.9264C13.5386 26.1607 13.0404 26.2773 12.537 26.2651H10.8227C10.7546 26.2651 10.6894 26.2922 10.6412 26.3403C10.5931 26.3884 10.5661 26.4537 10.5661 26.5217V29.7553C10.5653 29.844 10.5366 29.9302 10.4839 30.0016C10.4517 30.0324 10.4121 30.0542 10.3689 30.065C10.3257 30.0758 10.2805 30.0752 10.2376 30.0632ZM10.2889 20.2395C10.0538 20.2395 9.8282 20.3321 9.66101 20.4974C9.49382 20.6627 9.39854 20.8872 9.39583 21.1223V29.7245C9.39253 29.7634 9.3972 29.8026 9.40956 29.8397C9.42191 29.8767 9.44169 29.9109 9.46769 29.94C9.48593 29.9696 9.51171 29.9937 9.54239 30.01C9.57307 30.0262 9.60752 30.034 9.6422 30.0324H10.2376C10.2721 30.0329 10.3062 30.0247 10.3367 30.0086C10.3672 29.9924 10.3931 29.9689 10.4121 29.94C10.4381 29.9109 10.4579 29.8767 10.4702 29.8397C10.4826 29.8026 10.4872 29.7634 10.4839 29.7245V26.5012C10.4839 26.4223 10.5153 26.3465 10.5711 26.2907C10.627 26.2349 10.7027 26.2035 10.7816 26.2035H12.4959C12.9914 26.2141 13.4818 26.1012 13.9228 25.875C14.3371 25.64 14.6674 25.281 14.8672 24.8485C15.1099 24.3361 15.2261 23.7728 15.2059 23.2061C15.2262 22.6361 15.11 22.0695 14.8672 21.5534V21.5534C14.671 21.1186 14.3398 20.7586 13.9228 20.5269C13.4844 20.2925 12.9928 20.1758 12.4959 20.1881L10.2889 20.2395ZM12.4343 25.0538H10.8227C10.7819 25.0553 10.7412 25.0483 10.7032 25.0333C10.6652 25.0183 10.6306 24.9957 10.6017 24.9668C10.5729 24.9379 10.5502 24.9034 10.5353 24.8654C10.5203 24.8274 10.5133 24.7867 10.5147 24.7459V21.6663C10.5147 21.5847 10.5472 21.5063 10.6049 21.4486C10.6627 21.3908 10.741 21.3584 10.8227 21.3584H12.4754C12.7101 21.3389 12.9462 21.3721 13.1664 21.4556C13.3866 21.5391 13.5854 21.6707 13.7483 21.8408C14.0438 22.2323 14.1895 22.7166 14.1589 23.2061C14.1907 23.6942 14.0408 24.1769 13.738 24.5611V24.5611C13.5764 24.7306 13.3795 24.8625 13.1614 24.9476C12.9432 25.0328 12.7091 25.069 12.4754 25.0538H12.4343ZM10.7816 21.42C10.7466 21.42 10.7119 21.4269 10.6795 21.4403C10.6471 21.4537 10.6177 21.4734 10.5929 21.4981C10.5681 21.5229 10.5485 21.5523 10.5351 21.5847C10.5216 21.6171 10.5147 21.6518 10.5147 21.6869V24.7664C10.5133 24.8018 10.5192 24.8372 10.5321 24.8702C10.545 24.9033 10.5646 24.9333 10.5897 24.9583C10.6148 24.9834 10.6448 25.003 10.6778 25.0159C10.7108 25.0288 10.7462 25.0347 10.7816 25.0333H12.4343C12.6602 25.0527 12.8875 25.0223 13.1004 24.9442C13.3132 24.8662 13.5063 24.7424 13.6661 24.5816V24.5816C13.9657 24.2041 14.1122 23.7278 14.0767 23.2472C14.1083 22.7686 13.9662 22.2948 13.6764 21.9127C13.5191 21.7444 13.3254 21.6144 13.1101 21.5325C12.8948 21.4507 12.6637 21.4192 12.4343 21.4405L10.7816 21.42Z"
          fill="#5E58A5"></path>
    <path d="M25.6353 30.0428C25.6047 30.0439 25.5744 30.0368 25.5473 30.0224C25.5203 30.008 25.4976 29.9867 25.4814 29.9607C25.4569 29.9347 25.438 29.904 25.4257 29.8705C25.4133 29.837 25.4078 29.8013 25.4095 29.7657C25.4095 29.7657 25.4095 29.663 25.4095 29.6117L28.2016 20.527C28.2279 20.4446 28.2697 20.3679 28.3248 20.3012C28.3562 20.2718 28.3935 20.2493 28.4341 20.2351C28.4748 20.221 28.518 20.2155 28.5609 20.2191H29.3205C29.407 20.2143 29.4918 20.2438 29.5566 20.3012C29.6117 20.3679 29.6535 20.4446 29.6798 20.527L32.4514 29.5809C32.4609 29.6318 32.4609 29.684 32.4514 29.7349C32.4529 29.8049 32.4312 29.8735 32.3898 29.9299C32.3723 29.9546 32.3492 29.9749 32.3225 29.9892C32.2958 30.0034 32.2661 30.0113 32.2358 30.012H31.661C31.6241 30.0174 31.5864 30.0125 31.5521 29.9981C31.5177 29.9836 31.4879 29.96 31.4659 29.9299C31.4278 29.8834 31.3967 29.8315 31.3736 29.7759L30.8295 28.0103C30.81 27.9461 30.7708 27.8897 30.7173 27.8491C30.6638 27.8086 30.5989 27.786 30.5318 27.7845H27.3291C27.262 27.786 27.1971 27.8086 27.1436 27.8491C27.0901 27.8897 27.0509 27.9461 27.0314 28.0103L26.4771 29.7759C26.4705 29.8337 26.4453 29.8878 26.4052 29.9299C26.3803 29.9593 26.3486 29.9822 26.3128 29.9965C26.277 30.0108 26.2382 30.0162 26.1999 30.012L25.6353 30.0428ZM27.6062 26.604H30.2957C30.3153 26.603 30.3344 26.5978 30.3517 26.5886C30.369 26.5794 30.3841 26.5665 30.3958 26.5508C30.4076 26.5351 30.4158 26.517 30.4198 26.4979C30.4237 26.4787 30.4234 26.4588 30.4189 26.4398L29.0742 22.0258C29.064 22.0014 29.0469 21.9807 29.025 21.966C29.0031 21.9514 28.9773 21.9436 28.951 21.9436C28.9246 21.9436 28.8989 21.9514 28.877 21.966C28.855 21.9807 28.8379 22.0014 28.8278 22.0258L27.4831 26.4398C27.4786 26.4581 27.478 26.4771 27.4814 26.4956C27.4848 26.5141 27.492 26.5317 27.5027 26.5472C27.5134 26.5627 27.5272 26.5758 27.5433 26.5856C27.5593 26.5954 27.5773 26.6017 27.596 26.604H27.6062Z"
          fill="#5E58A5"></path>
    <path d="M32.2564 30.0632H31.6815C31.6408 30.066 31.6 30.0591 31.5626 30.043C31.5251 30.027 31.4919 30.0022 31.4659 29.9708C31.4288 29.9253 31.4009 29.873 31.3838 29.8168L30.8295 28.0409C30.8117 27.9813 30.7751 27.9291 30.7251 27.8921C30.6752 27.8551 30.6145 27.8353 30.5523 27.8356H27.3291C27.2655 27.8347 27.2033 27.8541 27.1516 27.891C27.0999 27.928 27.0614 27.9805 27.0417 28.0409L26.4976 29.8168C26.4805 29.873 26.4526 29.9253 26.4155 29.9708C26.389 30.0016 26.3557 30.0259 26.3184 30.0419C26.281 30.0579 26.2405 30.0652 26.1999 30.0632H25.6353C25.6011 30.062 25.5677 30.0531 25.5374 30.0371C25.5072 30.0211 25.481 29.9984 25.4608 29.9708C25.4179 29.9112 25.3962 29.8389 25.3992 29.7655C25.3947 29.7143 25.3947 29.6627 25.3992 29.6115L28.1811 20.5268C28.2125 20.4593 28.254 20.397 28.3043 20.3421C28.3383 20.3097 28.3787 20.2848 28.4229 20.2689C28.4671 20.253 28.5141 20.2464 28.5609 20.2497H29.3205C29.3659 20.2459 29.4115 20.2523 29.4541 20.2682C29.4967 20.2842 29.5352 20.3094 29.5669 20.3421C29.631 20.408 29.6769 20.4893 29.7003 20.5782L32.4719 29.5807C32.4769 29.6319 32.4769 29.6835 32.4719 29.7347C32.4744 29.772 32.4693 29.8094 32.457 29.8447C32.4446 29.88 32.4253 29.9124 32.4001 29.94C32.3885 29.971 32.3693 29.9986 32.3442 30.0202C32.319 30.0417 32.2888 30.0565 32.2564 30.0632V30.0632ZM27.3291 27.7946H30.5523C30.6235 27.7955 30.6925 27.8189 30.7496 27.8612C30.8067 27.9036 30.849 27.9629 30.8706 28.0307L31.4146 29.8065C31.4322 29.8594 31.4601 29.9083 31.4967 29.9503C31.5185 29.978 31.5467 30 31.5789 30.0143C31.6111 30.0286 31.6463 30.0348 31.6815 30.0324H32.2564C32.2845 30.0288 32.3117 30.0198 32.3364 30.0057C32.3611 29.9916 32.3827 29.9727 32.4001 29.9503C32.4415 29.8977 32.4633 29.8324 32.4617 29.7655C32.4655 29.7142 32.4655 29.6628 32.4617 29.6115L29.6798 20.5371C29.6636 20.4559 29.6244 20.3811 29.5669 20.3215C29.537 20.2929 29.5015 20.2708 29.4626 20.2567C29.4237 20.2425 29.3823 20.2367 29.3411 20.2394H28.5814C28.54 20.2345 28.498 20.2394 28.4587 20.2536C28.4195 20.2679 28.3842 20.2911 28.3556 20.3215C28.2985 20.3829 28.2563 20.4567 28.2324 20.5371L25.43 29.5807C25.4253 29.6285 25.4253 29.6766 25.43 29.7244C25.4284 29.7913 25.4502 29.8566 25.4916 29.9092C25.5081 29.9326 25.5295 29.9521 25.5543 29.9663C25.5792 29.9804 25.6068 29.989 25.6353 29.9913H26.2102C26.2452 29.9929 26.2802 29.9863 26.3123 29.9721C26.3443 29.9578 26.3727 29.9363 26.3949 29.9092C26.4316 29.8672 26.4595 29.8184 26.4771 29.7655L27.0211 27.9896C27.0475 27.9303 27.0908 27.8802 27.1456 27.8455C27.2004 27.8107 27.2642 27.793 27.3291 27.7946ZM30.2854 26.6243H27.596C27.5731 26.6268 27.5501 26.6222 27.5299 26.6112C27.5097 26.6002 27.4934 26.5833 27.4831 26.5628C27.4732 26.5437 27.468 26.5226 27.468 26.5012C27.468 26.4797 27.4732 26.4586 27.4831 26.4396L28.8278 22.0255C28.8369 21.9949 28.856 21.9681 28.882 21.9495C28.9081 21.931 28.9395 21.9216 28.9715 21.9229C29.0031 21.9232 29.0338 21.9332 29.0595 21.9516C29.0853 21.9699 29.1047 21.9958 29.1152 22.0255L30.4497 26.4396C30.4616 26.4579 30.468 26.4793 30.468 26.5012C30.468 26.523 30.4616 26.5444 30.4497 26.5628C30.433 26.5897 30.4078 26.6104 30.3781 26.6215C30.3483 26.6327 30.3158 26.6336 30.2854 26.6243V26.6243ZM28.9407 21.9537C28.9167 21.9532 28.8933 21.9612 28.8745 21.9762C28.8558 21.9912 28.8429 22.0123 28.8381 22.0358L27.4933 26.5012C27.4861 26.5155 27.4823 26.5313 27.4823 26.5474C27.4823 26.5634 27.4861 26.5792 27.4933 26.5935C27.5039 26.6084 27.5178 26.6207 27.5337 26.6296C27.5497 26.6385 27.5675 26.6437 27.5857 26.6449H30.2752C30.292 26.6437 30.3084 26.6385 30.3227 26.6295C30.337 26.6205 30.3489 26.6082 30.3573 26.5935C30.3645 26.5792 30.3683 26.5634 30.3683 26.5474C30.3683 26.5313 30.3645 26.5155 30.3573 26.5012L29.0126 22.0871C29.0173 22.0737 29.0191 22.0594 29.018 22.0452C29.0169 22.031 29.0128 22.0171 29.0061 22.0046C28.9993 21.992 28.99 21.981 28.9787 21.9723C28.9675 21.9635 28.9545 21.9572 28.9407 21.9537V21.9537Z"
          fill="#5E58A5"></path>
    <path d="M19.9176 29.7143L17.4745 25.5261C17.3617 25.3349 17.3021 25.1169 17.3021 24.8948C17.3021 24.6727 17.3617 24.4547 17.4745 24.2635L19.8971 20.3422C19.9548 20.2596 20.0316 20.1922 20.121 20.1456C20.2103 20.099 20.3096 20.0747 20.4104 20.0747C20.5111 20.0747 20.6104 20.099 20.6997 20.1456C20.7891 20.1922 20.8659 20.2596 20.9236 20.3422L23.3359 24.2737C23.449 24.4631 23.5086 24.6794 23.5086 24.8999C23.5086 25.1204 23.449 25.3368 23.3359 25.5261L20.9441 29.704C20.8873 29.7872 20.8111 29.8554 20.7222 29.9029C20.6334 29.9503 20.5343 29.9756 20.4336 29.9767C20.3328 29.9777 20.2333 29.9543 20.1435 29.9087C20.0536 29.863 19.9762 29.7963 19.9176 29.7143Z"
          fill="#5E58A5"></path>
    <path d="M20.5028 30.0428C20.3905 30.0433 20.2801 30.0142 20.1827 29.9583C20.0854 29.9024 20.0046 29.8218 19.9484 29.7245L17.4232 25.5364C17.3075 25.3424 17.2464 25.1207 17.2464 24.8948C17.2464 24.6689 17.3075 24.4472 17.4232 24.2532L19.8766 20.3422C19.9359 20.2489 20.0178 20.1721 20.1147 20.1189C20.2116 20.0657 20.3204 20.0378 20.4309 20.0378C20.5414 20.0378 20.6502 20.0657 20.7471 20.1189C20.844 20.1721 20.9259 20.2489 20.9852 20.3422L23.3975 24.2737C23.5113 24.4665 23.5713 24.6863 23.5713 24.9102C23.5713 25.1341 23.5113 25.3538 23.3975 25.5466L21.0057 29.7245C20.9501 29.8252 20.8682 29.9089 20.7688 29.9667C20.6694 30.0246 20.5562 30.0544 20.4412 30.053L20.5028 30.0428ZM19.9792 29.704C20.0337 29.7943 20.1105 29.8691 20.2021 29.9212C20.2938 29.9733 20.3973 30.0011 20.5028 30.0017V30.0017C20.6111 30.0028 20.7178 29.9749 20.8117 29.9207C20.9056 29.8665 20.9833 29.7882 21.0365 29.6938L23.3873 25.4748C23.4954 25.2875 23.5523 25.0751 23.5523 24.8589C23.5523 24.6426 23.4954 24.4302 23.3873 24.243L20.9544 20.3422C20.8982 20.2575 20.822 20.188 20.7324 20.14C20.6429 20.0919 20.5428 20.0667 20.4412 20.0667C20.3395 20.0667 20.2395 20.0919 20.1499 20.14C20.0604 20.188 19.9841 20.2575 19.9279 20.3422L17.5259 24.2635C17.4127 24.4509 17.3528 24.6656 17.3528 24.8845C17.3528 25.1034 17.4127 25.3182 17.5259 25.5056L19.9792 29.704Z"
          fill="#5E58A5"></path>
    <path d="M20.2769 28.0718L18.5216 25.0539C18.5022 25.0251 18.4918 24.9911 18.4918 24.9564C18.4918 24.9216 18.5022 24.8877 18.5216 24.8588L20.2667 22.0154C20.2843 21.9878 20.3086 21.9652 20.3373 21.9495C20.366 21.9338 20.3982 21.9255 20.4309 21.9255C20.4636 21.9255 20.4958 21.9338 20.5245 21.9495C20.5532 21.9652 20.5775 21.9878 20.5951 22.0154L22.3402 24.8588C22.3596 24.8877 22.37 24.9216 22.37 24.9564C22.37 24.9911 22.3596 25.0251 22.3402 25.0539L20.6259 28.0718C20.6075 28.1015 20.5818 28.1261 20.5513 28.1431C20.5208 28.1601 20.4864 28.169 20.4514 28.169C20.4165 28.169 20.3821 28.1601 20.3516 28.1431C20.321 28.1261 20.2953 28.1015 20.2769 28.0718V28.0718Z"
          fill="white"></path>
    <path d="M40.3042 21.5639C40.1024 21.1295 39.7682 20.7701 39.3496 20.5373C38.908 20.3017 38.4128 20.1849 37.9125 20.1986H35.7055C35.5864 20.1972 35.4684 20.2196 35.3581 20.2645C35.2479 20.3095 35.1478 20.3759 35.0636 20.4601C34.9795 20.5443 34.913 20.6444 34.8681 20.7546C34.8232 20.8648 34.8007 20.9829 34.8021 21.1019V29.7041C34.7989 29.7872 34.8203 29.8693 34.8637 29.9402C34.8889 29.9665 34.9192 29.9873 34.9527 30.0014C34.9863 30.0156 35.0224 30.0227 35.0587 30.0223H35.6541C35.6905 30.0227 35.7266 30.0156 35.7601 30.0014C35.7937 29.9873 35.824 29.9665 35.8492 29.9402C35.9002 29.8725 35.9257 29.7888 35.921 29.7041V26.5014C35.921 26.4279 35.9502 26.3574 36.0022 26.3054C36.0542 26.2534 36.1247 26.2242 36.1982 26.2242H37.9535C38.4538 26.2379 38.9491 26.1212 39.3906 25.8855C39.808 25.651 40.1417 25.2922 40.3453 24.859C40.5882 24.3429 40.7043 23.7763 40.6841 23.2063C40.6879 22.6366 40.5578 22.074 40.3042 21.5639V21.5639ZM39.1032 24.5715C38.94 24.7341 38.7436 24.8595 38.5275 24.9392C38.3113 25.0189 38.0806 25.0511 37.8509 25.0335H36.1982C36.1604 25.0335 36.1231 25.026 36.0882 25.0116C36.0533 24.9972 36.0216 24.976 35.9949 24.9493C35.9682 24.9226 35.9471 24.8909 35.9326 24.856C35.9182 24.8212 35.9108 24.7838 35.9108 24.7461V21.6665C35.9133 21.5911 35.9444 21.5195 35.9978 21.4661C36.0511 21.4127 36.1228 21.3816 36.1982 21.3791H37.8509C38.084 21.3597 38.3186 21.393 38.5371 21.4765C38.7557 21.56 38.9527 21.6916 39.1135 21.8615C39.4007 22.2489 39.5424 22.7249 39.5138 23.2063C39.5541 23.6969 39.4075 24.1846 39.1032 24.5715Z"
          fill="#5E58A5"></path>
    <path d="M35.6541 30.0634H35.0587C35.0196 30.0654 34.9806 30.0581 34.9449 30.042C34.9092 30.0259 34.8779 30.0016 34.8534 29.971C34.8038 29.8986 34.7786 29.8123 34.7816 29.7246V21.1224C34.7816 20.8774 34.8789 20.6424 35.0522 20.4691C35.2254 20.2959 35.4604 20.1985 35.7054 20.1985H37.9535C38.4564 20.1916 38.9533 20.3079 39.4009 20.5373C39.8186 20.7712 40.1525 21.1302 40.3556 21.5638V21.5638C40.5983 22.0872 40.7143 22.6604 40.6943 23.237C40.7142 23.8103 40.5982 24.3802 40.3556 24.9C40.1537 25.3344 39.8195 25.6937 39.4009 25.9265C38.9557 26.1621 38.4571 26.2788 37.9535 26.2652H36.1982C36.1629 26.2594 36.1267 26.2611 36.0921 26.2701C36.0575 26.2791 36.0251 26.2952 35.9971 26.3174C35.969 26.3396 35.946 26.3675 35.9293 26.3992C35.9127 26.4308 35.9029 26.4656 35.9005 26.5013V29.7349C35.8987 29.8219 35.8739 29.9069 35.8286 29.9812C35.7822 30.0286 35.7202 30.0578 35.6541 30.0634V30.0634ZM35.7054 20.2396C35.4713 20.2396 35.2468 20.3326 35.0812 20.4982C34.9157 20.6637 34.8226 20.8883 34.8226 21.1224V29.7246C34.8181 29.8014 34.8398 29.8774 34.8842 29.9402C34.9032 29.969 34.9291 29.9926 34.9596 30.0087C34.9902 30.0249 35.0242 30.0331 35.0587 30.0326H35.6541C35.6902 30.0339 35.726 30.0261 35.7583 30.0099C35.7906 29.9938 35.8183 29.9698 35.8389 29.9402C35.8869 29.8787 35.9123 29.8026 35.9107 29.7246V26.5013C35.9094 26.4627 35.9158 26.4243 35.9296 26.3882C35.9434 26.3521 35.9644 26.3192 35.9912 26.2914C36.018 26.2636 36.0502 26.2416 36.0858 26.2265C36.1213 26.2114 36.1595 26.2036 36.1982 26.2037H37.9535C38.4521 26.2121 38.9453 26.0994 39.3906 25.8752C39.802 25.6395 40.1289 25.2804 40.3248 24.8487C40.5675 24.3362 40.6837 23.7729 40.6635 23.2062C40.6838 22.6362 40.5676 22.0696 40.3248 21.5535C40.1325 21.1194 39.8048 20.7593 39.3906 20.527C38.9435 20.3117 38.4491 20.2128 37.9535 20.2396H35.7054ZM37.8509 25.054H36.1982C36.1165 25.054 36.0382 25.0215 35.9804 24.9638C35.9227 24.906 35.8902 24.8277 35.8902 24.746V21.6665C35.8928 21.5856 35.9261 21.5087 35.9833 21.4515C36.0405 21.3943 36.1173 21.3611 36.1982 21.3585H37.8509C38.0856 21.339 38.3217 21.3722 38.5419 21.4557C38.7621 21.5392 38.9609 21.6708 39.1237 21.841C39.4193 22.2324 39.565 22.7167 39.5343 23.2062C39.5662 23.6944 39.4162 24.177 39.1135 24.5612V24.5612C38.9527 24.7318 38.756 24.8646 38.5377 24.9498C38.3193 25.035 38.0847 25.0706 37.8509 25.054V25.054ZM36.1982 21.4201C36.1631 21.4201 36.1284 21.427 36.096 21.4404C36.0637 21.4538 36.0342 21.4735 36.0094 21.4983C35.9847 21.523 35.965 21.5525 35.9516 21.5848C35.9382 21.6172 35.9313 21.6519 35.9313 21.687V24.7665C35.9313 24.8373 35.9594 24.9052 36.0094 24.9553C36.0595 25.0053 36.1274 25.0334 36.1982 25.0334H37.8509C38.0782 25.0522 38.307 25.0216 38.5214 24.9436C38.7358 24.8657 38.9308 24.7422 39.0929 24.5818C39.3881 24.2019 39.5341 23.7273 39.5036 23.2473C39.5297 22.7694 39.3881 22.2974 39.1032 21.9128C38.943 21.7455 38.7474 21.6163 38.5306 21.5346C38.3139 21.4529 38.0816 21.4208 37.8509 21.4406L36.1982 21.4201Z"
          fill="#5E58A5"></path>
</svg>