<svg width="18" height="17" viewBox="0 0 18 17" fill="none" xmlns="http://www.w3.org/2000/svg">
<path fill-rule="evenodd" clip-rule="evenodd" d="M10 0.5V1.5H9V2.5H8V5.5H6V4.5H4V3.5H3V2.5H0V9.5H1V10.5H2V11.5H3V12.5H4V13.5H3V14.5H2V16.5H13V15.5H14V14.5H15V13.5H16V8.5H17V7.5H18V4.5H16V2.5H15V1.5H14V0.5H10ZM2 8.5H3V9.5H4V10.5H5V11.5H6V13.5H5V14.5H12V13.5H13V12.5H14V7.5H15V6.5H16V5.5H14V3.5H13V2.5H11V3.5H10V7.5H5V6.5H3V5.5H2V8.5Z" fill="white"/>
<path d="M3 8.5H2V5.5H3V6.5H5V7.5H10V3.5H11V2.5H13V3.5H14V5.5H16V6.5H15V7.5H14V12.5H13V13.5H12V14.5H5V13.5H6V11.5H5V10.5H4V9.5H3V8.5Z" fill="white"/>
</svg>
