<svg width="101" height="40" viewBox="0 0 101 40" fill="none" xmlns="http://www.w3.org/2000/svg">
    <path d="M81.76 6.6665H69.1814V19.9998V33.3332H81.76V19.9998V6.6665Z" fill="white"/>
    <path d="M37.7349 6.6665H25.1562V19.9998V33.3332H37.7349V19.9998V6.6665Z" fill="white"/>
    <path d="M50.3149 6.6665H37.7363V19.9998V33.3332H50.3149V19.9998V6.6665Z" fill="black"/>
    <path d="M94.3401 6.6665H81.7615V19.9998V33.3332H94.3401V19.9998V6.6665Z" fill="black"/>
    <path fill-rule="evenodd" clip-rule="evenodd"
          d="M18.8679 0H56.6038L56.6038 13.3333H62.8931V0H100.629L100.629 19.9999V33.3333L100.629 40H62.8931V33.3333V20H56.6038V33.3333L56.6038 40H18.8679V33.3333V20H6.28931V33.3333H0V19.9999V13.3333H18.8679V0ZM25.1572 6.66667H50.3145V19.9999V33.3333H25.1572L25.1572 19.9999L25.1572 6.66667ZM69.1824 6.66663H94.3396V19.9999V33.3333H69.1824L69.1824 19.9999L69.1824 6.66663Z"
          fill="#254EFB"/>
</svg>
