<svg width="86" height="60" viewBox="0 0 86 60" fill="none" xmlns="http://www.w3.org/2000/svg">
<path d="M85.1848 0H28.5811V10H85.1848V0Z" fill="#1E3445"/>
<path d="M38.015 10H28.5811V20H38.015V10Z" fill="#1E3445"/>
<path d="M56.8826 10H38.0146V20H56.8826V10Z" fill="white"/>
<path d="M75.7509 10H56.883V20H75.7509V10Z" fill="black"/>
<path d="M85.1848 10H75.7508V20H85.1848V10Z" fill="#1E3445"/>
<path d="M38.015 20.0001H0.279114V30.0001H38.015V20.0001Z" fill="#1E3445"/>
<path d="M56.8826 20.0001H38.0146V30.0001H56.8826V20.0001Z" fill="white"/>
<path d="M75.7509 20.0001H56.883V30.0001H75.7509V20.0001Z" fill="black"/>
<path d="M85.1848 20.0001H75.7508V30.0001H85.1848V20.0001Z" fill="#1E3445"/>
<path d="M9.71308 30H0.279114V40H9.71308V30Z" fill="#1E3445"/>
<path d="M38.015 30H28.5811V40H38.015V30Z" fill="#1E3445"/>
<path d="M56.8826 30H38.0146V40H56.8826V30Z" fill="white"/>
<path d="M75.7509 30H56.883V40H75.7509V30Z" fill="black"/>
<path d="M85.1848 30H75.7508V40H85.1848V30Z" fill="#1E3445"/>
<path d="M9.71308 40H0.279114V50H9.71308V40Z" fill="#1E3445"/>
<path d="M38.015 40H28.5811V50H38.015V40Z" fill="#1E3445"/>
<path d="M56.8826 40H38.0146V50H56.8826V40Z" fill="white"/>
<path d="M75.7509 40H56.883V50H75.7509V40Z" fill="black"/>
<path d="M85.1848 40H75.7508V50H85.1848V40Z" fill="#1E3445"/>
<path d="M85.1848 50H28.5811V60H85.1848V50Z" fill="#1E3445"/>
</svg>
